ffmpeg version N-82167-g5e96558 Copyright (c) 2000-2016 the FFmpeg developers
  built with gcc 5.4.0 (Ubuntu 5.4.0-6ubuntu1~16.04.2) 20160609
  configuration: --prefix=/root/ffmpeg_build --pkg-config-flags=--static --extra-cflags=-I/root/ffmpeg_build/include --extra-ldflags=-L/root/ffmpeg_build/lib --bindir=/root/bin --enable-gpl --enable-libass --enable-libfdk-aac --enable-libfreetype --enable-libmp3lame --enable-libopus --enable-libtheora --enable-libvorbis --enable-libx264 --enable-libx265 --enable-nonfree
  libavutil      55. 35.100 / 55. 35.100
  libavcodec     57. 65.100 / 57. 65.100
  libavformat    57. 57.100 / 57. 57.100
  libavdevice    57.  2.100 / 57.  2.100
  libavfilter     6. 66.100 /  6. 66.100
  libswscale      4.  3.100 /  4.  3.100
  libswresample   2.  4.100 /  2.  4.100
  libpostproc    54.  2.100 / 54.  2.100
Input #0, matroska,webm, from '/media/yubikiri/bot/queue/3AnimePahe_Detective_Conan_-_020_720p_Fansub.mkv':
  Metadata:
    title           : 3|Text||0|0
    ENCODER         : Lavf57.57.100
  Duration: 00:24:44.40, start: 0.000000, bitrate: 943 kb/s
    Stream #0:0: Video: mpeg4 (Simple Profile), yuv420p, 640x480 [SAR 1:1 DAR 4:3], 23.98 fps, 23.98 tbr, 1k tbn, 23.98 tbc (default)
    Metadata:
      DURATION        : 00:24:44.401000000
    Stream #0:1: Audio: mp3, 44100 Hz, stereo, s16p, 80 kb/s (default)
    Metadata:
      DURATION        : 00:24:43.677000000
[libx264 @ 0x35ed660] using SAR=1/1
[libx264 @ 0x35ed660] using cpu capabilities: MMX2 SSE2Fast SSSE3 SSE4.2 AVX FMA3 AVX2 LZCNT BMI2
[libx264 @ 0x35ed660] profile High, level 3.1
[libx264 @ 0x35ed660] 264 - core 148 r2643 5c65704 - H.264/MPEG-4 AVC codec - Copyleft 2003-2015 - http://www.videolan.org/x264.html - options: cabac=1 ref=8 deblock=1:1:1 analyse=0x3:0x133 me=umh subme=7 psy=1 psy_rd=0.00:0.00 mixed_ref=1 me_range=8 chroma_me=1 trellis=0 8x8dct=1 cqm=0 deadzone=21,11 fast_pskip=1 chroma_qp_offset=0 threads=8 lookahead_threads=2 sliced_threads=0 nr=0 decimate=1 interlaced=0 bluray_compat=0 constrained_intra=0 bframes=3 b_pyramid=2 b_adapt=2 b_bias=0 direct=1 weightb=1 open_gop=0 weightp=2 keyint=240 keyint_min=24 scenecut=40 intra_refresh=0 rc_lookahead=60 rc=crf mbtree=1 crf=27.0 qcomp=0.60 qpmin=0 qpmax=69 qpstep=4 ip_ratio=1.40 aq=1:1.00
[libfdk_aac @ 0x3579340] Note, the VBR setting is unsupported and only works with some parameter combinations
Output #0, mp4, to '/media/yubikiri/bot/queue/3AnimePahe_Detective_Conan_-_020_720p_Fansub.mkv_encoded.mp4':
  Metadata:
    encoder         : Lavf57.57.100
    Stream #0:0: Video: h264 (libx264) ([33][0][0][0] / 0x0021), yuv420p, 640x480 [SAR 1:1 DAR 4:3], q=-1--1, 23.98 fps, 11988 tbn, 23.98 tbc (default)
    Metadata:
      encoder         : Lavc57.65.100 libx264
    Side data:
      cpb: bitrate max/min/avg: 0/0/0 buffer size: 0 vbv_delay: -1
    Stream #0:1: Audio: aac (libfdk_aac) (HE-AACv2) ([64][0][0][0] / 0x0040), 44100 Hz, stereo, s16, 48 kb/s (default)
    Metadata:
      encoder         : Lavc57.65.100 libfdk_aac
Stream mapping:
  Stream #0:0 -> #0:0 (mpeg4 (native) -> h264 (libx264))
  Stream #0:1 -> #0:1 (mp3 (native) -> aac (libfdk_aac))
Press [q] to stop, [?] for help
frame=  132 fps=0.0 q=32.0 size=     121kB time=00:00:05.64 bitrate= 175.7kbits/s dup=5 drop=0 speed=10.8x    frame=  247 fps=242 q=32.0 size=     263kB time=00:00:10.42 bitrate= 206.8kbits/s dup=5 drop=0 speed=10.2x    frame=  342 fps=223 q=32.0 size=     434kB time=00:00:14.42 bitrate= 246.7kbits/s dup=5 drop=0 speed=9.41x    frame=  426 fps=210 q=32.0 size=     574kB time=00:00:17.90 bitrate= 262.6kbits/s dup=5 drop=0 speed=8.81x    frame=  520 fps=205 q=32.0 size=     735kB time=00:00:21.85 bitrate= 275.6kbits/s dup=5 drop=0 speed=8.62x    frame=  597 fps=195 q=32.0 size=     884kB time=00:00:25.05 bitrate= 288.9kbits/s dup=5 drop=0 speed=8.18x    frame=  655 fps=183 q=32.0 size=    1081kB time=00:00:27.47 bitrate= 322.3kbits/s dup=5 drop=0 speed=7.69x    frame=  731 fps=179 q=32.0 size=    1268kB time=00:00:30.62 bitrate= 339.2kbits/s dup=5 drop=0 speed= 7.5x    frame=  772 fps=168 q=32.0 size=    1411kB time=00:00:32.34 bitrate= 357.4kbits/s dup=5 drop=0 speed=7.04x    frame=  807 fps=158 q=32.0 size=    1565kB time=00:00:33.78 bitrate= 379.3kbits/s dup=5 drop=0 speed=6.63x    frame=  842 fps=150 q=32.0 size=    1754kB time=00:00:35.27 bitrate= 407.3kbits/s dup=5 drop=0 speed= 6.3x    frame=  880 fps=144 q=32.0 size=    1947kB time=00:00:36.85 bitrate= 432.9kbits/s dup=5 drop=0 speed=6.04x    frame=  932 fps=141 q=32.0 size=    2140kB time=00:00:39.03 bitrate= 449.2kbits/s dup=5 drop=0 speed=5.91x    frame=  986 fps=139 q=32.0 size=    2294kB time=00:00:41.26 bitrate= 455.4kbits/s dup=5 drop=0 speed= 5.8x    frame= 1053 fps=138 q=32.0 size=    2462kB time=00:00:44.04 bitrate= 457.9kbits/s dup=5 drop=0 speed=5.78x    frame= 1115 fps=137 q=32.0 size=    2635kB time=00:00:46.65 bitrate= 462.7kbits/s dup=5 drop=0 speed=5.74x    frame= 1184 fps=137 q=32.0 size=    2825kB time=00:00:49.52 bitrate= 467.3kbits/s dup=5 drop=0 speed=5.73x    frame= 1230 fps=134 q=32.0 size=    3055kB time=00:00:51.48 bitrate= 486.1kbits/s dup=5 drop=0 speed=5.62x    frame= 1312 fps=136 q=32.0 size=    3206kB time=00:00:54.87 bitrate= 478.7kbits/s dup=5 drop=0 speed=5.67x    frame= 1378 fps=135 q=32.0 size=    3435kB time=00:00:57.61 bitrate= 488.5kbits/s dup=5 drop=0 speed=5.65x    frame= 1434 fps=134 q=32.0 size=    3608kB time=00:00:59.93 bitrate= 493.2kbits/s dup=5 drop=0 speed= 5.6x    frame= 1478 fps=132 q=32.0 size=    3765kB time=00:01:01.78 bitrate= 499.2kbits/s dup=5 drop=0 speed=5.51x    frame= 1551 fps=132 q=32.0 size=    3952kB time=00:01:04.85 bitrate= 499.2kbits/s dup=5 drop=0 speed=5.54x    frame= 1623 fps=133 q=32.0 size=    4083kB time=00:01:07.82 bitrate= 493.1kbits/s dup=5 drop=0 speed=5.55x    frame= 1687 fps=132 q=32.0 size=    4274kB time=00:01:10.52 bitrate= 496.5kbits/s dup=5 drop=0 speed=5.53x    frame= 1751 fps=132 q=32.0 size=    4453kB time=00:01:13.16 bitrate= 498.6kbits/s dup=5 drop=0 speed=5.52x    frame= 1792 fps=130 q=32.0 size=    4615kB time=00:01:14.88 bitrate= 504.9kbits/s dup=5 drop=0 speed=5.44x    frame= 1832 fps=128 q=32.0 size=    4819kB time=00:01:16.55 bitrate= 515.7kbits/s dup=5 drop=0 speed=5.36x    frame= 1877 fps=127 q=32.0 size=    5000kB time=00:01:18.46 bitrate= 522.1kbits/s dup=5 drop=0 speed= 5.3x    frame= 1937 fps=126 q=32.0 size=    5168kB time=00:01:20.92 bitrate= 523.2kbits/s dup=5 drop=0 speed=5.28x    frame= 2022 fps=128 q=32.0 size=    5339kB time=00:01:24.49 bitrate= 517.7kbits/s dup=5 drop=0 speed=5.34x    frame= 2089 fps=128 q=32.0 size=    5436kB time=00:01:27.28 bitrate= 510.2kbits/s dup=5 drop=0 speed=5.34x    frame= 2179 fps=129 q=32.0 size=    5571kB time=00:01:31.04 bitrate= 501.3kbits/s dup=5 drop=0 speed=5.41x    frame= 2324 fps=134 q=32.0 size=    5688kB time=00:01:37.08 bitrate= 480.0kbits/s dup=5 drop=0 speed= 5.6x    frame= 2479 fps=139 q=32.0 size=    5794kB time=00:01:43.53 bitrate= 458.5kbits/s dup=5 drop=0 speed= 5.8x    frame= 2636 fps=144 q=32.0 size=    5882kB time=00:01:50.08 bitrate= 437.7kbits/s dup=5 drop=0 speed=   6x    frame= 2770 fps=147 q=32.0 size=    5990kB time=00:01:55.66 bitrate= 424.3kbits/s dup=5 drop=0 speed=6.14x    frame= 2855 fps=147 q=32.0 size=    6038kB time=00:01:59.23 bitrate= 414.9kbits/s dup=5 drop=0 speed=6.16x    frame= 2887 fps=145 q=32.0 size=    6119kB time=00:02:00.53 bitrate= 415.9kbits/s dup=5 drop=0 speed=6.07x    frame= 2922 fps=143 q=32.0 size=    6219kB time=00:02:02.02 bitrate= 417.5kbits/s dup=5 drop=0 speed=5.99x    frame= 2953 fps=141 q=32.0 size=    6320kB time=00:02:03.32 bitrate= 419.8kbits/s dup=5 drop=0 speed=5.91x    frame= 2985 fps=140 q=32.0 size=    6402kB time=00:02:04.66 bitrate= 420.7kbits/s dup=5 drop=0 speed=5.83x    frame= 3019 fps=138 q=32.0 size=    6483kB time=00:02:06.06 bitrate= 421.3kbits/s dup=5 drop=0 speed=5.76x    frame= 3053 fps=136 q=32.0 size=    6571kB time=00:02:07.45 bitrate= 422.3kbits/s dup=5 drop=0 speed= 5.7x    frame= 3083 fps=134 q=32.0 size=    6672kB time=00:02:08.70 bitrate= 424.6kbits/s dup=5 drop=0 speed=5.61x    frame= 3118 fps=133 q=32.0 size=    6786kB time=00:02:10.19 bitrate= 427.0kbits/s dup=5 drop=0 speed=5.56x    frame= 3150 fps=132 q=32.0 size=    6878kB time=00:02:11.54 bitrate= 428.3kbits/s dup=5 drop=0 speed= 5.5x    frame= 3185 fps=130 q=32.0 size=    6996kB time=00:02:12.98 bitrate= 430.9kbits/s dup=5 drop=0 speed=5.44x    frame= 3221 fps=129 q=29.0 size=    7124kB time=00:02:14.46 bitrate= 434.0kbits/s dup=5 drop=0 speed=5.38x    frame= 3252 fps=128 q=32.0 size=    7258kB time=00:02:15.76 bitrate= 437.9kbits/s dup=5 drop=0 speed=5.33x    frame= 3293 fps=127 q=32.0 size=    7380kB time=00:02:17.48 bitrate= 439.7kbits/s dup=5 drop=0 speed=5.28x    frame= 3328 fps=125 q=32.0 size=    7459kB time=00:02:18.92 bitrate= 439.8kbits/s dup=5 drop=0 speed=5.24x    frame= 3367 fps=124 q=32.0 size=    7564kB time=00:02:20.59 bitrate= 440.7kbits/s dup=5 drop=0 speed= 5.2x    frame= 3397 fps=123 q=32.0 size=    7647kB time=00:02:21.80 bitrate= 441.8kbits/s dup=5 drop=0 speed=5.13x    frame= 3430 fps=122 q=32.0 size=    7734kB time=00:02:23.24 bitrate= 442.3kbits/s dup=5 drop=0 speed=5.09x    frame= 3465 fps=121 q=32.0 size=    7821kB time=00:02:24.68 bitrate= 442.8kbits/s dup=5 drop=0 speed=5.05x    frame= 3498 fps=120 q=32.0 size=    7920kB time=00:02:26.03 bitrate= 444.3kbits/s dup=5 drop=0 speed=   5x    frame= 3528 fps=119 q=32.0 size=    7988kB time=00:02:27.28 bitrate= 444.3kbits/s dup=5 drop=0 speed=4.96x    frame= 3554 fps=118 q=32.0 size=    8053kB time=00:02:28.35 bitrate= 444.7kbits/s dup=5 drop=0 speed=4.91x    frame= 3589 fps=117 q=32.0 size=    8151kB time=00:02:29.83 bitrate= 445.6kbits/s dup=5 drop=0 speed=4.88x    frame= 3627 fps=116 q=32.0 size=    8265kB time=00:02:31.41 bitrate= 447.1kbits/s dup=5 drop=0 speed=4.85x    frame= 3677 fps=116 q=32.0 size=    8328kB time=00:02:33.50 bitrate= 444.4kbits/s dup=5 drop=0 speed=4.84x    frame= 3750 fps=116 q=32.0 size=    8410kB time=00:02:36.57 bitrate= 440.0kbits/s dup=5 drop=0 speed=4.86x    frame= 3783 fps=115 q=32.0 size=    8574kB time=00:02:37.92 bitrate= 444.8kbits/s dup=5 drop=0 speed=4.82x    frame= 3812 fps=115 q=32.0 size=    8727kB time=00:02:39.12 bitrate= 449.3kbits/s dup=5 drop=0 speed=4.78x    frame= 3855 fps=114 q=32.0 size=    8819kB time=00:02:40.93 bitrate= 448.9kbits/s dup=5 drop=0 speed=4.76x    frame= 3916 fps=114 q=32.0 size=    8911kB time=00:02:43.49 bitrate= 446.5kbits/s dup=5 drop=0 speed=4.77x    frame= 4013 fps=115 q=32.0 size=    9019kB time=00:02:47.53 bitrate= 441.0kbits/s dup=5 drop=0 speed=4.81x    frame= 4114 fps=117 q=32.0 size=    9111kB time=00:02:51.71 bitrate= 434.7kbits/s dup=5 drop=0 speed=4.86x    frame= 4207 fps=118 q=32.0 size=    9179kB time=00:02:55.61 bitrate= 428.2kbits/s dup=5 drop=0 speed=4.91x    frame= 4268 fps=118 q=32.0 size=    9285kB time=00:02:58.16 bitrate= 426.9kbits/s dup=5 drop=0 speed=4.91x    frame= 4349 fps=118 q=32.0 size=    9363kB time=00:03:01.51 bitrate= 422.6kbits/s dup=5 drop=0 speed=4.93x    frame= 4417 fps=118 q=32.0 size=    9434kB time=00:03:04.34 bitrate= 419.2kbits/s dup=5 drop=0 speed=4.94x    frame= 4471 fps=118 q=32.0 size=    9519kB time=00:03:06.62 bitrate= 417.8kbits/s dup=5 drop=0 speed=4.93x    frame= 4515 fps=118 q=32.0 size=    9583kB time=00:03:08.47 bitrate= 416.5kbits/s dup=5 drop=0 speed=4.92x    frame= 4572 fps=118 q=32.0 size=    9693kB time=00:03:10.84 bitrate= 416.1kbits/s dup=5 drop=0 speed=4.91x    frame= 4654 fps=118 q=32.0 size=    9761kB time=00:03:14.23 bitrate= 411.7kbits/s dup=5 drop=0 speed=4.94x    frame= 4714 fps=118 q=32.0 size=    9836kB time=00:03:16.74 bitrate= 409.5kbits/s dup=5 drop=0 speed=4.94x    frame= 4770 fps=118 q=32.0 size=    9913kB time=00:03:19.11 bitrate= 407.8kbits/s dup=5 drop=0 speed=4.93x    frame= 4829 fps=118 q=32.0 size=    9985kB time=00:03:21.57 bitrate= 405.8kbits/s dup=5 drop=0 speed=4.93x    frame= 4889 fps=118 q=32.0 size=   10074kB time=00:03:24.08 bitrate= 404.4kbits/s dup=5 drop=0 speed=4.93x    frame= 4945 fps=118 q=32.0 size=   10161kB time=00:03:26.40 bitrate= 403.3kbits/s dup=5 drop=0 speed=4.92x    frame= 5010 fps=118 q=32.0 size=   10260kB time=00:03:29.09 bitrate= 402.0kbits/s dup=5 drop=0 speed=4.93x    frame= 5086 fps=118 q=32.0 size=   10321kB time=00:03:32.25 bitrate= 398.4kbits/s dup=5 drop=0 speed=4.94x    frame= 5120 fps=118 q=32.0 size=   10426kB time=00:03:33.69 bitrate= 399.7kbits/s dup=5 drop=0 speed=4.92x    frame= 5151 fps=117 q=32.0 size=   10516kB time=00:03:34.99 bitrate= 400.7kbits/s dup=5 drop=0 speed=4.89x    frame= 5179 fps=117 q=32.0 size=   10595kB time=00:03:36.15 bitrate= 401.5kbits/s dup=5 drop=0 speed=4.86x    frame= 5210 fps=116 q=32.0 size=   10722kB time=00:03:37.45 bitrate= 403.9kbits/s dup=5 drop=0 speed=4.84x    frame= 5282 fps=116 q=32.0 size=   10840kB time=00:03:40.42 bitrate= 402.9kbits/s dup=5 drop=0 speed=4.85x    frame= 5359 fps=117 q=32.0 size=   10959kB time=00:03:43.67 bitrate= 401.3kbits/s dup=5 drop=0 speed=4.87x    frame= 5444 fps=117 q=32.0 size=   11032kB time=00:03:47.20 bitrate= 397.8kbits/s dup=5 drop=0 speed=4.89x    frame= 5517 fps=117 q=32.0 size=   11133kB time=00:03:50.22 bitrate= 396.1kbits/s dup=5 drop=0 speed= 4.9x    frame= 5594 fps=118 q=32.0 size=   11220kB time=00:03:53.47 bitrate= 393.7kbits/s dup=5 drop=0 speed=4.92x    frame= 5673 fps=118 q=32.0 size=   11313kB time=00:03:56.72 bitrate= 391.5kbits/s dup=5 drop=0 speed=4.93x    frame= 5759 fps=119 q=32.0 size=   11378kB time=00:04:00.35 bitrate= 387.8kbits/s dup=5 drop=0 speed=4.95x    frame= 5825 fps=119 q=32.0 size=   11468kB time=00:04:03.09 bitrate= 386.5kbits/s dup=5 drop=0 speed=4.96x    frame= 5885 fps=119 q=32.0 size=   11540kB time=00:04:05.59 bitrate= 384.9kbits/s dup=5 drop=0 speed=4.96x    frame= 5965 fps=119 q=32.0 size=   11651kB time=00:04:08.94 bitrate= 383.4kbits/s dup=5 drop=0 speed=4.97x    frame= 6055 fps=120 q=32.0 size=   11733kB time=00:04:12.70 bitrate= 380.4kbits/s dup=5 drop=0 speed=4.99x    frame= 6114 fps=119 q=32.0 size=   11862kB time=00:04:15.16 bitrate= 380.8kbits/s dup=5 drop=0 speed=4.99x    frame= 6169 fps=119 q=32.0 size=   11975kB time=00:04:17.44 bitrate= 381.1kbits/s dup=5 drop=0 speed=4.98x    frame= 6233 fps=119 q=32.0 size=   12074kB time=00:04:20.13 bitrate= 380.2kbits/s dup=5 drop=0 speed=4.98x    frame= 6336 fps=120 q=32.0 size=   12177kB time=00:04:24.40 bitrate= 377.3kbits/s dup=5 drop=0 speed=5.01x    frame= 6404 fps=120 q=32.0 size=   12243kB time=00:04:27.23 bitrate= 375.3kbits/s dup=5 drop=0 speed=5.02x    frame= 6478 fps=120 q=32.0 size=   12327kB time=00:04:30.35 bitrate= 373.5kbits/s dup=5 drop=0 speed=5.03x    frame= 6586 fps=121 q=32.0 size=   12442kB time=00:04:34.85 bitrate= 370.8kbits/s dup=5 drop=0 speed=5.06x    frame= 6696 fps=122 q=32.0 size=   12570kB time=00:04:39.45 bitrate= 368.5kbits/s dup=5 drop=0 speed= 5.1x    frame= 6781 fps=123 q=32.0 size=   12702kB time=00:04:42.93 bitrate= 367.8kbits/s dup=5 drop=0 speed=5.12x    frame= 6877 fps=123 q=32.0 size=   12839kB time=00:04:46.97 bitrate= 366.5kbits/s dup=5 drop=0 speed=5.14x    frame= 6991 fps=124 q=32.0 size=   12958kB time=00:04:51.71 bitrate= 363.9kbits/s dup=5 drop=0 speed=5.18x    frame= 7111 fps=125 q=32.0 size=   13063kB time=00:04:56.72 bitrate= 360.7kbits/s dup=5 drop=0 speed=5.22x    frame= 7184 fps=125 q=32.0 size=   13165kB time=00:04:59.79 bitrate= 359.8kbits/s dup=5 drop=0 speed=5.23x    frame= 7276 fps=126 q=32.0 size=   13269kB time=00:05:03.60 bitrate= 358.0kbits/s dup=5 drop=0 speed=5.25x    frame= 7403 fps=127 q=32.0 size=   13365kB time=00:05:08.94 bitrate= 354.4kbits/s dup=5 drop=0 speed= 5.3x    frame= 7506 fps=128 q=32.0 size=   13453kB time=00:05:13.21 bitrate= 351.8kbits/s dup=5 drop=0 speed=5.32x    frame= 7596 fps=128 q=32.0 size=   13562kB time=00:05:16.97 bitrate= 350.5kbits/s dup=5 drop=0 speed=5.34x    frame= 7680 fps=128 q=32.0 size=   13647kB time=00:05:20.46 bitrate= 348.9kbits/s dup=5 drop=0 speed=5.36x    frame= 7746 fps=128 q=32.0 size=   13720kB time=00:05:23.19 bitrate= 347.8kbits/s dup=5 drop=0 speed=5.36x    frame= 7839 fps=129 q=32.0 size=   13816kB time=00:05:27.10 bitrate= 346.0kbits/s dup=5 drop=0 speed=5.37x    frame= 7910 fps=129 q=32.0 size=   13915kB time=00:05:30.07 bitrate= 345.4kbits/s dup=5 drop=0 speed=5.38x    frame= 7995 fps=129 q=32.0 size=   14027kB time=00:05:33.60 bitrate= 344.5kbits/s dup=5 drop=0 speed=5.39x    frame= 8072 fps=129 q=32.0 size=   14118kB time=00:05:36.80 bitrate= 343.4kbits/s dup=5 drop=0 speed= 5.4x    frame= 8126 fps=129 q=32.0 size=   14209kB time=00:05:39.08 bitrate= 343.3kbits/s dup=5 drop=0 speed=5.39x    frame= 8228 fps=130 q=32.0 size=   14292kB time=00:05:43.30 bitrate= 341.0kbits/s dup=5 drop=0 speed=5.42x    frame= 8319 fps=130 q=32.0 size=   14364kB time=00:05:47.11 bitrate= 339.0kbits/s dup=5 drop=0 speed=5.43x    frame= 8427 fps=131 q=32.0 size=   14464kB time=00:05:51.62 bitrate= 337.0kbits/s dup=5 drop=0 speed=5.46x    frame= 8547 fps=132 q=32.0 size=   14538kB time=00:05:56.63 bitrate= 333.9kbits/s dup=5 drop=0 speed= 5.5x    frame= 8635 fps=132 q=32.0 size=   14614kB time=00:06:00.30 bitrate= 332.3kbits/s dup=5 drop=0 speed= 5.5x    frame= 8702 fps=132 q=32.0 size=   14663kB time=00:06:03.09 bitrate= 330.8kbits/s dup=5 drop=0 speed= 5.5x    frame= 8741 fps=131 q=32.0 size=   14779kB time=00:06:04.71 bitrate= 332.0kbits/s dup=5 drop=0 speed=5.49x    frame= 8779 fps=131 q=32.0 size=   14890kB time=00:06:06.29 bitrate= 333.0kbits/s dup=5 drop=0 speed=5.46x    frame= 8893 fps=132 q=32.0 size=   15000kB time=00:06:11.07 bitrate= 331.1kbits/s dup=5 drop=0 speed= 5.5x    frame= 8960 fps=132 q=32.0 size=   15098kB time=00:06:13.86 bitrate= 330.8kbits/s dup=5 drop=0 speed= 5.5x    frame= 9005 fps=131 q=32.0 size=   15209kB time=00:06:15.72 bitrate= 331.6kbits/s dup=5 drop=0 speed=5.48x    frame= 9084 fps=132 q=32.0 size=   15302kB time=00:06:19.02 bitrate= 330.7kbits/s dup=5 drop=0 speed=5.49x    frame= 9164 fps=132 q=32.0 size=   15424kB time=00:06:22.36 bitrate= 330.4kbits/s dup=5 drop=0 speed= 5.5x    frame= 9258 fps=132 q=32.0 size=   15530kB time=00:06:26.26 bitrate= 329.4kbits/s dup=5 drop=0 speed=5.51x    frame= 9342 fps=132 q=32.0 size=   15606kB time=00:06:29.79 bitrate= 328.0kbits/s dup=5 drop=0 speed=5.52x    frame= 9414 fps=132 q=32.0 size=   15674kB time=00:06:32.81 bitrate= 326.9kbits/s dup=5 drop=0 speed=5.53x    frame= 9465 fps=132 q=32.0 size=   15757kB time=00:06:34.90 bitrate= 326.9kbits/s dup=5 drop=0 speed=5.52x    frame= 9524 fps=132 q=32.0 size=   15849kB time=00:06:37.36 bitrate= 326.7kbits/s dup=5 drop=0 speed=5.51x    frame= 9598 fps=132 q=32.0 size=   15943kB time=00:06:40.47 bitrate= 326.1kbits/s dup=5 drop=0 speed=5.52x    frame= 9668 fps=132 q=32.0 size=   16003kB time=00:06:43.40 bitrate= 325.0kbits/s dup=5 drop=0 speed=5.52x    frame= 9755 fps=133 q=32.0 size=   16083kB time=00:06:47.02 bitrate= 323.7kbits/s dup=5 drop=0 speed=5.53x    frame= 9850 fps=133 q=32.0 size=   16172kB time=00:06:50.97 bitrate= 322.4kbits/s dup=5 drop=0 speed=5.55x    frame= 9946 fps=133 q=32.0 size=   16253kB time=00:06:54.96 bitrate= 320.9kbits/s dup=5 drop=0 speed=5.56x    frame=10045 fps=134 q=32.0 size=   16395kB time=00:06:59.09 bitrate= 320.5kbits/s dup=5 drop=0 speed=5.58x    frame=10178 fps=135 q=32.0 size=   16474kB time=00:07:04.62 bitrate= 317.8kbits/s dup=5 drop=0 speed=5.62x    frame=10276 fps=135 q=32.0 size=   16584kB time=00:07:08.75 bitrate= 316.9kbits/s dup=5 drop=0 speed=5.63x    frame=10365 fps=135 q=32.0 size=   16673kB time=00:07:12.47 bitrate= 315.8kbits/s dup=5 drop=0 speed=5.64x    frame=10472 fps=136 q=32.0 size=   16772kB time=00:07:16.93 bitrate= 314.5kbits/s dup=5 drop=0 speed=5.67x    frame=10591 fps=136 q=32.0 size=   16879kB time=00:07:21.90 bitrate= 312.9kbits/s dup=5 drop=0 speed=5.69x    frame=10689 fps=137 q=32.0 size=   16938kB time=00:07:25.94 bitrate= 311.2kbits/s dup=5 drop=0 speed=5.71x    frame=10760 fps=137 q=32.0 size=   17035kB time=00:07:28.91 bitrate= 310.9kbits/s dup=5 drop=0 speed=5.71x    frame=10820 fps=137 q=32.0 size=   17096kB time=00:07:31.42 bitrate= 310.2kbits/s dup=5 drop=0 speed= 5.7x    frame=10881 fps=137 q=32.0 size=   17182kB time=00:07:33.97 bitrate= 310.1kbits/s dup=5 drop=0 speed= 5.7x    frame=10989 fps=137 q=32.0 size=   17269kB time=00:07:38.47 bitrate= 308.6kbits/s dup=5 drop=0 speed=5.72x    frame=11061 fps=137 q=32.0 size=   17369kB time=00:07:41.49 bitrate= 308.3kbits/s dup=5 drop=0 speed=5.72x    frame=11123 fps=137 q=32.0 size=   17443kB time=00:07:44.05 bitrate= 307.9kbits/s dup=5 drop=0 speed=5.71x    frame=11188 fps=137 q=32.0 size=   17553kB time=00:07:46.79 bitrate= 308.0kbits/s dup=5 drop=0 speed=5.71x    frame=11317 fps=138 q=32.0 size=   17653kB time=00:07:52.17 bitrate= 306.3kbits/s dup=5 drop=0 speed=5.74x    frame=11460 fps=139 q=32.0 size=   17770kB time=00:07:58.12 bitrate= 304.5kbits/s dup=5 drop=0 speed=5.78x    frame=11583 fps=139 q=32.0 size=   17846kB time=00:08:03.27 bitrate= 302.5kbits/s dup=5 drop=0 speed=5.81x    frame=11701 fps=140 q=32.0 size=   17931kB time=00:08:08.15 bitrate= 300.9kbits/s dup=5 drop=0 speed=5.83x    frame=11777 fps=140 q=32.0 size=   18045kB time=00:08:11.35 bitrate= 300.9kbits/s dup=5 drop=0 speed=5.83x    frame=11867 fps=140 q=32.0 size=   18131kB time=00:08:15.12 bitrate= 300.0kbits/s dup=5 drop=0 speed=5.84x    frame=11930 fps=140 q=32.0 size=   18222kB time=00:08:17.72 bitrate= 299.9kbits/s dup=5 drop=0 speed=5.84x    frame=12046 fps=140 q=32.0 size=   18302kB time=00:08:22.55 bitrate= 298.3kbits/s dup=5 drop=0 speed=5.86x    frame=12143 fps=141 q=32.0 size=   18383kB time=00:08:26.63 bitrate= 297.2kbits/s dup=5 drop=0 speed=5.87x    frame=12184 fps=140 q=32.0 size=   18489kB time=00:08:28.30 bitrate= 298.0kbits/s dup=5 drop=0 speed=5.86x    frame=12223 fps=140 q=32.0 size=   18569kB time=00:08:29.93 bitrate= 298.3kbits/s dup=5 drop=0 speed=5.84x    frame=12294 fps=140 q=32.0 size=   18652kB time=00:08:32.90 bitrate= 297.9kbits/s dup=5 drop=0 speed=5.84x    frame=12367 fps=140 q=32.0 size=   18734kB time=00:08:35.92 bitrate= 297.5kbits/s dup=5 drop=0 speed=5.84x    frame=12432 fps=140 q=32.0 size=   18798kB time=00:08:38.61 bitrate= 296.9kbits/s dup=5 drop=0 speed=5.84x    frame=12482 fps=140 q=32.0 size=   18857kB time=00:08:40.75 bitrate= 296.6kbits/s dup=5 drop=0 speed=5.83x    frame=12558 fps=140 q=32.0 size=   18960kB time=00:08:43.91 bitrate= 296.5kbits/s dup=5 drop=0 speed=5.83x    frame=12634 fps=140 q=32.0 size=   19039kB time=00:08:47.11 bitrate= 295.9kbits/s dup=5 drop=0 speed=5.83x    frame=12714 fps=140 q=32.0 size=   19137kB time=00:08:50.41 bitrate= 295.6kbits/s dup=5 drop=0 speed=5.83x    frame=12779 fps=140 q=32.0 size=   19234kB time=00:08:53.10 bitrate= 295.6kbits/s dup=5 drop=0 speed=5.83x    frame=12849 fps=140 q=32.0 size=   19313kB time=00:08:56.03 bitrate= 295.2kbits/s dup=5 drop=0 speed=5.83x    frame=12924 fps=140 q=32.0 size=   19393kB time=00:08:59.19 bitrate= 294.6kbits/s dup=5 drop=0 speed=5.83x    frame=12986 fps=140 q=32.0 size=   19525kB time=00:09:01.79 bitrate= 295.2kbits/s dup=5 drop=0 speed=5.83x    frame=13061 fps=140 q=32.0 size=   19627kB time=00:09:04.90 bitrate= 295.1kbits/s dup=5 drop=0 speed=5.83x    frame=13146 fps=140 q=32.0 size=   19739kB time=00:09:08.43 bitrate= 294.8kbits/s dup=5 drop=0 speed=5.84x    frame=13228 fps=140 q=32.0 size=   19858kB time=00:09:11.87 bitrate= 294.8kbits/s dup=5 drop=0 speed=5.84x    frame=13265 fps=140 q=32.0 size=   20022kB time=00:09:13.40 bitrate= 296.4kbits/s dup=5 drop=0 speed=5.82x    frame=13293 fps=139 q=29.0 size=   20146kB time=00:09:14.56 bitrate= 297.6kbits/s dup=5 drop=0 speed=5.81x    frame=13355 fps=139 q=32.0 size=   20266kB time=00:09:17.16 bitrate= 298.0kbits/s dup=5 drop=0 speed= 5.8x    frame=13437 fps=139 q=32.0 size=   20354kB time=00:09:20.60 bitrate= 297.4kbits/s dup=5 drop=0 speed=5.81x    frame=13533 fps=139 q=32.0 size=   20449kB time=00:09:24.59 bitrate= 296.7kbits/s dup=5 drop=0 speed=5.82x    frame=13646 fps=140 q=32.0 size=   20563kB time=00:09:29.33 bitrate= 295.9kbits/s dup=5 drop=0 speed=5.84x    frame=13735 fps=140 q=32.0 size=   20656kB time=00:09:33.00 bitrate= 295.3kbits/s dup=5 drop=0 speed=5.85x    frame=13833 fps=140 q=32.0 size=   20778kB time=00:09:37.08 bitrate= 294.9kbits/s dup=5 drop=0 speed=5.85x    frame=13947 fps=141 q=32.0 size=   20890kB time=00:09:41.82 bitrate= 294.1kbits/s dup=5 drop=0 speed=5.87x    frame=14013 fps=141 q=32.0 size=   20959kB time=00:09:44.61 bitrate= 293.7kbits/s dup=5 drop=0 speed=5.87x    frame=14048 fps=140 q=32.0 size=   21079kB time=00:09:46.04 bitrate= 294.6kbits/s dup=5 drop=0 speed=5.86x    frame=14078 fps=140 q=32.0 size=   21186kB time=00:09:47.30 bitrate= 295.5kbits/s dup=5 drop=0 speed=5.84x    frame=14109 fps=140 q=32.0 size=   21288kB time=00:09:48.60 bitrate= 296.3kbits/s dup=5 drop=0 speed=5.82x    frame=14152 fps=139 q=32.0 size=   21399kB time=00:09:50.41 bitrate= 296.9kbits/s dup=5 drop=0 speed=5.81x    frame=14213 fps=139 q=32.0 size=   21501kB time=00:09:52.96 bitrate= 297.0kbits/s dup=5 drop=0 speed=5.81x    frame=14254 fps=139 q=32.0 size=   21557kB time=00:09:54.64 bitrate= 297.0kbits/s dup=5 drop=0 speed=5.79x    frame=14289 fps=139 q=32.0 size=   21600kB time=00:09:56.12 bitrate= 296.8kbits/s dup=5 drop=0 speed=5.78x    frame=14327 fps=138 q=32.0 size=   21657kB time=00:09:57.70 bitrate= 296.8kbits/s dup=5 drop=0 speed=5.76x    frame=14391 fps=138 q=32.0 size=   21747kB time=00:10:00.35 bitrate= 296.7kbits/s dup=5 drop=0 speed=5.76x    frame=14462 fps=138 q=32.0 size=   21816kB time=00:10:03.32 bitrate= 296.2kbits/s dup=5 drop=0 speed=5.76x    frame=14529 fps=138 q=32.0 size=   21865kB time=00:10:06.11 bitrate= 295.5kbits/s dup=5 drop=0 speed=5.76x    frame=14557 fps=138 q=32.0 size=   21978kB time=00:10:07.27 bitrate= 296.5kbits/s dup=5 drop=0 speed=5.74x    frame=14592 fps=137 q=32.0 size=   22062kB time=00:10:08.75 bitrate= 296.9kbits/s dup=5 drop=0 speed=5.73x    frame=14627 fps=137 q=32.0 size=   22146kB time=00:10:10.19 bitrate= 297.3kbits/s dup=5 drop=0 speed=5.71x    frame=14688 fps=137 q=32.0 size=   22244kB time=00:10:12.75 bitrate= 297.4kbits/s dup=5 drop=0 speed=5.71x    frame=14760 fps=137 q=32.0 size=   22312kB time=00:10:15.77 bitrate= 296.8kbits/s dup=5 drop=0 speed=5.71x    frame=14864 fps=137 q=32.0 size=   22414kB time=00:10:20.09 bitrate= 296.1kbits/s dup=5 drop=0 speed=5.72x    frame=14943 fps=137 q=32.0 size=   22528kB time=00:10:23.43 bitrate= 296.0kbits/s dup=5 drop=0 speed=5.73x    frame=14998 fps=137 q=32.0 size=   22649kB time=00:10:25.66 bitrate= 296.6kbits/s dup=5 drop=0 speed=5.72x    frame=15082 fps=137 q=32.0 size=   22791kB time=00:10:29.19 bitrate= 296.7kbits/s dup=5 drop=0 speed=5.73x    frame=15191 fps=138 q=32.0 size=   22868kB time=00:10:33.74 bitrate= 295.6kbits/s dup=5 drop=0 speed=5.74x    frame=15310 fps=138 q=32.0 size=   22978kB time=00:10:38.71 bitrate= 294.7kbits/s dup=5 drop=0 speed=5.76x    frame=15390 fps=138 q=32.0 size=   23102kB time=00:10:42.00 bitrate= 294.8kbits/s dup=5 drop=0 speed=5.76x    frame=15497 fps=139 q=32.0 size=   23206kB time=00:10:46.51 bitrate= 294.0kbits/s dup=5 drop=0 speed=5.78x    frame=15593 fps=139 q=32.0 size=   23309kB time=00:10:50.50 bitrate= 293.5kbits/s dup=5 drop=0 speed=5.79x    frame=15709 fps=139 q=29.0 size=   23407kB time=00:10:55.33 bitrate= 292.6kbits/s dup=5 drop=0 speed= 5.8x    frame=15822 fps=140 q=32.0 size=   23528kB time=00:11:00.07 bitrate= 292.0kbits/s dup=5 drop=0 speed=5.82x    frame=15920 fps=140 q=32.0 size=   23646kB time=00:11:04.11 bitrate= 291.7kbits/s dup=5 drop=0 speed=5.83x    frame=16041 fps=140 q=32.0 size=   23747kB time=00:11:09.22 bitrate= 290.7kbits/s dup=5 drop=0 speed=5.85x    frame=16101 fps=140 q=32.0 size=   23865kB time=00:11:11.68 bitrate= 291.1kbits/s dup=5 drop=0 speed=5.84x    frame=16160 fps=140 q=32.0 size=   23950kB time=00:11:14.14 bitrate= 291.0kbits/s dup=5 drop=0 speed=5.84x    frame=16222 fps=140 q=32.0 size=   24032kB time=00:11:16.74 bitrate= 290.9kbits/s dup=5 drop=0 speed=5.83x    frame=16294 fps=140 q=32.0 size=   24137kB time=00:11:19.71 bitrate= 290.9kbits/s dup=5 drop=0 speed=5.84x    frame=16371 fps=140 q=32.0 size=   24220kB time=00:11:22.92 bitrate= 290.5kbits/s dup=5 drop=0 speed=5.84x    frame=16456 fps=140 q=32.0 size=   24323kB time=00:11:26.49 bitrate= 290.2kbits/s dup=5 drop=0 speed=5.84x    frame=16540 fps=140 q=32.0 size=   24447kB time=00:11:29.98 bitrate= 290.3kbits/s dup=5 drop=0 speed=5.85x    frame=16613 fps=140 q=32.0 size=   24549kB time=00:11:33.04 bitrate= 290.2kbits/s dup=5 drop=0 speed=5.85x    frame=16693 fps=140 q=32.0 size=   24636kB time=00:11:36.39 bitrate= 289.8kbits/s dup=5 drop=0 speed=5.85x    frame=16801 fps=141 q=32.0 size=   24717kB time=00:11:40.89 bitrate= 288.9kbits/s dup=5 drop=0 speed=5.86x    frame=16881 fps=141 q=32.0 size=   24811kB time=00:11:44.23 bitrate= 288.6kbits/s dup=5 drop=0 speed=5.87x    frame=16946 fps=141 q=32.0 size=   24887kB time=00:11:46.93 bitrate= 288.4kbits/s dup=5 drop=0 speed=5.86x    frame=17003 fps=140 q=32.0 size=   24989kB time=00:11:49.30 bitrate= 288.6kbits/s dup=5 drop=0 speed=5.86x    frame=17060 fps=140 q=32.0 size=   25056kB time=00:11:51.66 bitrate= 288.4kbits/s dup=5 drop=0 speed=5.85x    frame=17116 fps=140 q=32.0 size=   25123kB time=00:11:54.03 bitrate= 288.2kbits/s dup=5 drop=0 speed=5.85x    frame=17234 fps=141 q=29.0 size=   25202kB time=00:11:58.96 bitrate= 287.2kbits/s dup=5 drop=0 speed=5.86x    frame=17329 fps=141 q=32.0 size=   25312kB time=00:12:02.90 bitrate= 286.8kbits/s dup=5 drop=0 speed=5.87x    frame=17416 fps=141 q=32.0 size=   25434kB time=00:12:06.53 bitrate= 286.8kbits/s dup=5 drop=0 speed=5.88x    frame=17475 fps=141 q=32.0 size=   25506kB time=00:12:08.99 bitrate= 286.6kbits/s dup=5 drop=0 speed=5.87x    frame=17544 fps=141 q=32.0 size=   25569kB time=00:12:11.87 bitrate= 286.2kbits/s dup=5 drop=0 speed=5.87x    frame=17616 fps=141 q=32.0 size=   25694kB time=00:12:14.88 bitrate= 286.4kbits/s dup=5 drop=0 speed=5.87x    frame=17709 fps=141 q=32.0 size=   25791kB time=00:12:18.79 bitrate= 286.0kbits/s dup=5 drop=0 speed=5.88x    frame=17760 fps=141 q=32.0 size=   25886kB time=00:12:20.88 bitrate= 286.2kbits/s dup=5 drop=0 speed=5.87x    frame=17816 fps=141 q=32.0 size=   25978kB time=00:12:23.24 bitrate= 286.3kbits/s dup=5 drop=0 speed=5.87x    frame=17863 fps=141 q=32.0 size=   26071kB time=00:12:25.19 bitrate= 286.6kbits/s dup=5 drop=0 speed=5.86x    frame=17923 fps=140 q=32.0 size=   26144kB time=00:12:27.66 bitrate= 286.5kbits/s dup=5 drop=0 speed=5.86x    frame=17969 fps=140 q=32.0 size=   26208kB time=00:12:29.61 bitrate= 286.4kbits/s dup=5 drop=0 speed=5.85x    frame=18021 fps=140 q=32.0 size=   26273kB time=00:12:31.79 bitrate= 286.3kbits/s dup=5 drop=0 speed=5.84x    frame=18063 fps=140 q=32.0 size=   26339kB time=00:12:33.51 bitrate= 286.4kbits/s dup=5 drop=0 speed=5.83x    frame=18125 fps=140 q=32.0 size=   26402kB time=00:12:36.11 bitrate= 286.1kbits/s dup=5 drop=0 speed=5.83x    frame=18260 fps=140 q=32.0 size=   26476kB time=00:12:41.77 bitrate= 284.7kbits/s dup=5 drop=0 speed=5.85x    frame=18347 fps=140 q=32.0 size=   26564kB time=00:12:45.35 bitrate= 284.3kbits/s dup=5 drop=0 speed=5.86x    frame=18419 fps=140 q=32.0 size=   26632kB time=00:12:48.37 bitrate= 283.9kbits/s dup=5 drop=0 speed=5.86x    frame=18523 fps=141 q=32.0 size=   26722kB time=00:12:52.69 bitrate= 283.3kbits/s dup=5 drop=0 speed=5.87x    frame=18590 fps=141 q=32.0 size=   26818kB time=00:12:55.47 bitrate= 283.3kbits/s dup=5 drop=0 speed=5.87x    frame=18709 fps=141 q=32.0 size=   26911kB time=00:13:00.44 bitrate= 282.5kbits/s dup=5 drop=0 speed=5.88x    frame=18843 fps=141 q=32.0 size=   27006kB time=00:13:06.06 bitrate= 281.4kbits/s dup=5 drop=0 speed= 5.9x    frame=18965 fps=142 q=32.0 size=   27093kB time=00:13:11.12 bitrate= 280.5kbits/s dup=5 drop=0 speed=5.92x    frame=19065 fps=142 q=32.0 size=   27230kB time=00:13:15.30 bitrate= 280.5kbits/s dup=5 drop=0 speed=5.93x    frame=19178 fps=142 q=32.0 size=   27339kB time=00:13:20.04 bitrate= 279.9kbits/s dup=5 drop=0 speed=5.94x    frame=19248 fps=142 q=32.0 size=   27456kB time=00:13:22.97 bitrate= 280.1kbits/s dup=5 drop=0 speed=5.94x    frame=19306 fps=142 q=32.0 size=   27537kB time=00:13:25.38 bitrate= 280.1kbits/s dup=5 drop=0 speed=5.93x    frame=19397 fps=142 q=32.0 size=   27644kB time=00:13:29.14 bitrate= 279.9kbits/s dup=5 drop=0 speed=5.94x    frame=19502 fps=143 q=32.0 size=   27748kB time=00:13:33.55 bitrate= 279.4kbits/s dup=5 drop=0 speed=5.95x    frame=19615 fps=143 q=32.0 size=   27852kB time=00:13:38.24 bitrate= 278.8kbits/s dup=5 drop=0 speed=5.96x    frame=19709 fps=143 q=32.0 size=   27984kB time=00:13:42.19 bitrate= 278.8kbits/s dup=5 drop=0 speed=5.97x    frame=19823 fps=143 q=32.0 size=   28095kB time=00:13:46.93 bitrate= 278.3kbits/s dup=5 drop=0 speed=5.98x    frame=19907 fps=143 q=32.0 size=   28200kB time=00:13:50.41 bitrate= 278.2kbits/s dup=5 drop=0 speed=5.98x    frame=19969 fps=143 q=32.0 size=   28304kB time=00:13:53.06 bitrate= 278.3kbits/s dup=5 drop=0 speed=5.98x    frame=20041 fps=143 q=32.0 size=   28418kB time=00:13:56.03 bitrate= 278.5kbits/s dup=5 drop=0 speed=5.98x    frame=20130 fps=144 q=32.0 size=   28526kB time=00:13:59.75 bitrate= 278.3kbits/s dup=5 drop=0 speed=5.99x    frame=20216 fps=144 q=32.0 size=   28639kB time=00:14:03.32 bitrate= 278.2kbits/s dup=5 drop=0 speed=5.99x    frame=20323 fps=144 q=32.0 size=   28769kB time=00:14:07.78 bitrate= 278.0kbits/s dup=5 drop=0 speed=   6x    frame=20414 fps=144 q=32.0 size=   28888kB time=00:14:11.59 bitrate= 277.9kbits/s dup=5 drop=0 speed=6.01x    frame=20490 fps=144 q=32.0 size=   28983kB time=00:14:14.75 bitrate= 277.8kbits/s dup=5 drop=0 speed=6.01x    frame=20579 fps=144 q=32.0 size=   29085kB time=00:14:18.46 bitrate= 277.5kbits/s dup=5 drop=0 speed=6.01x    frame=20672 fps=144 q=32.0 size=   29139kB time=00:14:22.36 bitrate= 276.8kbits/s dup=5 drop=0 speed=6.02x    frame=20761 fps=144 q=32.0 size=   29209kB time=00:14:26.08 bitrate= 276.3kbits/s dup=5 drop=0 speed=6.02x    frame=20865 fps=145 q=32.0 size=   29294kB time=00:14:30.40 bitrate= 275.7kbits/s dup=5 drop=0 speed=6.03x    frame=20950 fps=145 q=32.0 size=   29354kB time=00:14:33.93 bitrate= 275.2kbits/s dup=5 drop=0 speed=6.03x    frame=21040 fps=145 q=32.0 size=   29446kB time=00:14:37.69 bitrate= 274.8kbits/s dup=5 drop=0 speed=6.04x    frame=21101 fps=145 q=32.0 size=   29525kB time=00:14:40.24 bitrate= 274.8kbits/s dup=5 drop=0 speed=6.03x    frame=21150 fps=144 q=32.0 size=   29584kB time=00:14:42.29 bitrate= 274.7kbits/s dup=5 drop=0 speed=6.03x    frame=21215 fps=144 q=32.0 size=   29661kB time=00:14:44.98 bitrate= 274.6kbits/s dup=5 drop=0 speed=6.02x    frame=21293 fps=144 q=32.0 size=   29768kB time=00:14:48.23 bitrate= 274.5kbits/s dup=5 drop=0 speed=6.03x    frame=21364 fps=144 q=32.0 size=   29879kB time=00:14:51.20 bitrate= 274.7kbits/s dup=5 drop=0 speed=6.03x    frame=21436 fps=144 q=32.0 size=   29948kB time=00:14:54.17 bitrate= 274.4kbits/s dup=5 drop=0 speed=6.03x    frame=21490 fps=144 q=32.0 size=   30044kB time=00:14:56.45 bitrate= 274.5kbits/s dup=5 drop=0 speed=6.02x    frame=21549 fps=144 q=32.0 size=   30146kB time=00:14:58.91 bitrate= 274.7kbits/s dup=5 drop=0 speed=6.02x    frame=21583 fps=144 q=32.0 size=   30258kB time=00:15:00.35 bitrate= 275.3kbits/s dup=5 drop=0 speed=6.01x    frame=21644 fps=144 q=32.0 size=   30402kB time=00:15:02.90 bitrate= 275.8kbits/s dup=5 drop=0 speed=   6x    frame=21716 fps=144 q=32.0 size=   30477kB time=00:15:05.88 bitrate= 275.6kbits/s dup=5 drop=0 speed=   6x    frame=21785 fps=144 q=32.0 size=   30531kB time=00:15:08.76 bitrate= 275.2kbits/s dup=5 drop=0 speed=   6x    frame=21873 fps=144 q=32.0 size=   30614kB time=00:15:12.42 bitrate= 274.9kbits/s dup=5 drop=0 speed=   6x    frame=21957 fps=144 q=32.0 size=   30706kB time=00:15:15.91 bitrate= 274.6kbits/s dup=5 drop=0 speed=6.01x    frame=22032 fps=144 q=32.0 size=   30792kB time=00:15:19.07 bitrate= 274.5kbits/s dup=5 drop=0 speed=6.01x    frame=22139 fps=144 q=32.0 size=   30870kB time=00:15:23.52 bitrate= 273.8kbits/s dup=5 drop=0 speed=6.02x    frame=22189 fps=144 q=32.0 size=   30960kB time=00:15:25.61 bitrate= 274.0kbits/s dup=5 drop=0 speed=6.01x    frame=22247 fps=144 q=32.0 size=   31043kB time=00:15:28.03 bitrate= 274.0kbits/s dup=5 drop=0 speed=6.01x    frame=22342 fps=144 q=32.0 size=   31139kB time=00:15:31.98 bitrate= 273.7kbits/s dup=5 drop=0 speed=6.01x    frame=22466 fps=144 q=32.0 size=   31243kB time=00:15:37.18 bitrate= 273.1kbits/s dup=5 drop=0 speed=6.03x    frame=22540 fps=144 q=32.0 size=   31309kB time=00:15:40.24 bitrate= 272.8kbits/s dup=5 drop=0 speed=6.03x    frame=22597 fps=144 q=32.0 size=   31395kB time=00:15:42.61 bitrate= 272.8kbits/s dup=5 drop=0 speed=6.02x    frame=22680 fps=144 q=32.0 size=   31476kB time=00:15:46.09 bitrate= 272.5kbits/s dup=5 drop=0 speed=6.02x    frame=22778 fps=145 q=32.0 size=   31565kB time=00:15:50.18 bitrate= 272.1kbits/s dup=5 drop=0 speed=6.03x    frame=22831 fps=144 q=32.0 size=   31657kB time=00:15:52.41 bitrate= 272.3kbits/s dup=5 drop=0 speed=6.03x    frame=22901 fps=144 q=32.0 size=   31764kB time=00:15:55.29 bitrate= 272.4kbits/s dup=5 drop=0 speed=6.03x    frame=23035 fps=145 q=32.0 size=   31863kB time=00:16:00.86 bitrate= 271.7kbits/s dup=5 drop=0 speed=6.04x    frame=23118 fps=145 q=32.0 size=   31975kB time=00:16:04.34 bitrate= 271.6kbits/s dup=5 drop=0 speed=6.04x    frame=23204 fps=145 q=32.0 size=   32064kB time=00:16:07.92 bitrate= 271.4kbits/s dup=5 drop=0 speed=6.05x    frame=23291 fps=145 q=32.0 size=   32144kB time=00:16:11.59 bitrate= 271.0kbits/s dup=5 drop=0 speed=6.05x    frame=23389 fps=145 q=32.0 size=   32287kB time=00:16:15.68 bitrate= 271.1kbits/s dup=5 drop=0 speed=6.06x    frame=23483 fps=145 q=32.0 size=   32406kB time=00:16:19.58 bitrate= 271.0kbits/s dup=5 drop=0 speed=6.06x    frame=23550 fps=145 q=32.0 size=   32524kB time=00:16:22.36 bitrate= 271.2kbits/s dup=5 drop=0 speed=6.06x    frame=23639 fps=145 q=32.0 size=   32656kB time=00:16:26.08 bitrate= 271.3kbits/s dup=5 drop=0 speed=6.06x    frame=23711 fps=145 q=32.0 size=   32743kB time=00:16:29.10 bitrate= 271.2kbits/s dup=5 drop=0 speed=6.06x    frame=23774 fps=145 q=32.0 size=   32813kB time=00:16:31.70 bitrate= 271.1kbits/s dup=5 drop=0 speed=6.06x    frame=23840 fps=145 q=32.0 size=   32885kB time=00:16:34.48 bitrate= 270.9kbits/s dup=5 drop=0 speed=6.06x    frame=23948 fps=145 q=32.0 size=   32983kB time=00:16:38.99 bitrate= 270.5kbits/s dup=5 drop=0 speed=6.07x    frame=24052 fps=146 q=32.0 size=   33080kB time=00:16:43.35 bitrate= 270.1kbits/s dup=5 drop=0 speed=6.07x    frame=24145 fps=146 q=32.0 size=   33155kB time=00:16:47.21 bitrate= 269.7kbits/s dup=5 drop=0 speed=6.08x    frame=24240 fps=146 q=32.0 size=   33234kB time=00:16:51.16 bitrate= 269.2kbits/s dup=5 drop=0 speed=6.08x    frame=24312 fps=146 q=32.0 size=   33321kB time=00:16:54.13 bitrate= 269.2kbits/s dup=5 drop=0 speed=6.08x    frame=24368 fps=146 q=32.0 size=   33408kB time=00:16:56.50 bitrate= 269.2kbits/s dup=5 drop=0 speed=6.08x    frame=24422 fps=146 q=32.0 size=   33488kB time=00:16:58.73 bitrate= 269.3kbits/s dup=5 drop=0 speed=6.07x    frame=24511 fps=146 q=32.0 size=   33566kB time=00:17:02.44 bitrate= 268.9kbits/s dup=5 drop=0 speed=6.08x    frame=24592 fps=146 q=32.0 size=   33652kB time=00:17:05.83 bitrate= 268.7kbits/s dup=5 drop=0 speed=6.08x    frame=24642 fps=146 q=32.0 size=   33741kB time=00:17:07.92 bitrate= 268.9kbits/s dup=5 drop=0 speed=6.07x    frame=24740 fps=146 q=32.0 size=   33818kB time=00:17:12.01 bitrate= 268.4kbits/s dup=5 drop=0 speed=6.08x    frame=24791 fps=146 q=32.0 size=   33880kB time=00:17:14.14 bitrate= 268.4kbits/s dup=5 drop=0 speed=6.07x    frame=24835 fps=145 q=32.0 size=   33946kB time=00:17:15.95 bitrate= 268.4kbits/s dup=5 drop=0 speed=6.07x    frame=24885 fps=145 q=32.0 size=   34019kB time=00:17:18.04 bitrate= 268.5kbits/s dup=5 drop=0 speed=6.06x    frame=24963 fps=145 q=32.0 size=   34112kB time=00:17:21.30 bitrate= 268.4kbits/s dup=5 drop=0 speed=6.06x    frame=25113 fps=146 q=32.0 size=   34183kB time=00:17:27.56 bitrate= 267.3kbits/s dup=5 drop=0 speed=6.08x    frame=25227 fps=146 q=32.0 size=   34266kB time=00:17:32.30 bitrate= 266.8kbits/s dup=5 drop=0 speed=6.09x    frame=25350 fps=146 q=32.0 size=   34346kB time=00:17:37.46 bitrate= 266.1kbits/s dup=5 drop=0 speed= 6.1x    frame=25446 fps=146 q=32.0 size=   34427kB time=00:17:41.45 bitrate= 265.7kbits/s dup=5 drop=0 speed=6.11x    frame=25538 fps=146 q=32.0 size=   34498kB time=00:17:45.30 bitrate= 265.3kbits/s dup=5 drop=0 speed=6.11x    frame=25600 fps=146 q=32.0 size=   34554kB time=00:17:47.86 bitrate= 265.1kbits/s dup=5 drop=0 speed=6.11x    frame=25717 fps=147 q=32.0 size=   34613kB time=00:17:52.78 bitrate= 264.3kbits/s dup=5 drop=0 speed=6.12x    frame=25784 fps=147 q=32.0 size=   34684kB time=00:17:55.57 bitrate= 264.2kbits/s dup=5 drop=0 speed=6.11x    frame=25850 fps=147 q=32.0 size=   34742kB time=00:17:58.31 bitrate= 263.9kbits/s dup=5 drop=0 speed=6.11x    frame=25921 fps=147 q=32.0 size=   34828kB time=00:18:01.23 bitrate= 263.9kbits/s dup=5 drop=0 speed=6.11x    frame=25990 fps=146 q=32.0 size=   34891kB time=00:18:04.16 bitrate= 263.6kbits/s dup=5 drop=0 speed=6.11x    frame=26065 fps=146 q=32.0 size=   34977kB time=00:18:07.27 bitrate= 263.5kbits/s dup=5 drop=0 speed=6.11x    frame=26119 fps=146 q=32.0 size=   35041kB time=00:18:09.55 bitrate= 263.5kbits/s dup=5 drop=0 speed=6.11x    frame=26176 fps=146 q=32.0 size=   35118kB time=00:18:11.91 bitrate= 263.5kbits/s dup=5 drop=0 speed= 6.1x    frame=26233 fps=146 q=32.0 size=   35196kB time=00:18:14.28 bitrate= 263.5kbits/s dup=5 drop=0 speed= 6.1x    frame=26305 fps=146 q=32.0 size=   35304kB time=00:18:17.30 bitrate= 263.6kbits/s dup=5 drop=0 speed= 6.1x    frame=26384 fps=146 q=32.0 size=   35398kB time=00:18:20.60 bitrate= 263.5kbits/s dup=5 drop=0 speed= 6.1x    frame=26497 fps=146 q=32.0 size=   35494kB time=00:18:25.29 bitrate= 263.1kbits/s dup=5 drop=0 speed=6.11x    frame=26630 fps=147 q=32.0 size=   35579kB time=00:18:30.82 bitrate= 262.4kbits/s dup=5 drop=0 speed=6.12x    frame=26692 fps=147 q=32.0 size=   35670kB time=00:18:33.42 bitrate= 262.4kbits/s dup=5 drop=0 speed=6.12x    frame=26759 fps=147 q=32.0 size=   35755kB time=00:18:36.20 bitrate= 262.4kbits/s dup=5 drop=0 speed=6.12x    frame=26833 fps=147 q=32.0 size=   35868kB time=00:18:39.31 bitrate= 262.5kbits/s dup=5 drop=0 speed=6.12x    frame=26907 fps=147 q=32.0 size=   35962kB time=00:18:42.38 bitrate= 262.5kbits/s dup=5 drop=0 speed=6.12x    frame=27030 fps=147 q=32.0 size=   36079kB time=00:18:47.53 bitrate= 262.1kbits/s dup=5 drop=0 speed=6.13x    frame=27137 fps=147 q=32.0 size=   36169kB time=00:18:51.99 bitrate= 261.7kbits/s dup=5 drop=0 speed=6.13x    frame=27208 fps=147 q=32.0 size=   36246kB time=00:18:54.92 bitrate= 261.6kbits/s dup=5 drop=0 speed=6.13x    frame=27278 fps=147 q=32.0 size=   36321kB time=00:18:57.84 bitrate= 261.5kbits/s dup=5 drop=0 speed=6.13x    frame=27355 fps=147 q=32.0 size=   36398kB time=00:19:01.09 bitrate= 261.3kbits/s dup=5 drop=0 speed=6.13x    frame=27436 fps=147 q=32.0 size=   36502kB time=00:19:04.44 bitrate= 261.3kbits/s dup=5 drop=0 speed=6.13x    frame=27505 fps=147 q=32.0 size=   36578kB time=00:19:07.32 bitrate= 261.2kbits/s dup=5 drop=0 speed=6.13x    frame=27553 fps=147 q=29.0 size=   36648kB time=00:19:09.31 bitrate= 261.2kbits/s dup=5 drop=0 speed=6.13x    frame=27605 fps=147 q=32.0 size=   36797kB time=00:19:11.45 bitrate= 261.8kbits/s dup=5 drop=0 speed=6.12x    frame=27665 fps=147 q=32.0 size=   36909kB time=00:19:14.05 bitrate= 262.0kbits/s dup=5 drop=0 speed=6.12x    frame=27709 fps=147 q=32.0 size=   36993kB time=00:19:15.82 bitrate= 262.2kbits/s dup=5 drop=0 speed=6.11x    frame=27779 fps=147 q=32.0 size=   37088kB time=00:19:18.74 bitrate= 262.2kbits/s dup=5 drop=0 speed=6.11x    frame=27873 fps=147 q=32.0 size=   37162kB time=00:19:22.69 bitrate= 261.8kbits/s dup=5 drop=0 speed=6.12x    frame=27964 fps=147 q=32.0 size=   37264kB time=00:19:26.45 bitrate= 261.7kbits/s dup=5 drop=0 speed=6.12x    frame=28044 fps=147 q=32.0 size=   37359kB time=00:19:29.79 bitrate= 261.6kbits/s dup=5 drop=0 speed=6.12x    frame=28128 fps=147 q=32.0 size=   37428kB time=00:19:33.32 bitrate= 261.3kbits/s dup=5 drop=0 speed=6.12x    frame=28197 fps=147 q=32.0 size=   37525kB time=00:19:36.20 bitrate= 261.4kbits/s dup=5 drop=0 speed=6.12x    frame=28297 fps=147 q=32.0 size=   37613kB time=00:19:40.34 bitrate= 261.0kbits/s dup=5 drop=0 speed=6.13x    frame=28401 fps=147 q=32.0 size=   37691kB time=00:19:44.66 bitrate= 260.6kbits/s dup=5 drop=0 speed=6.14x    frame=28468 fps=147 q=32.0 size=   37773kB time=00:19:47.49 bitrate= 260.6kbits/s dup=5 drop=0 speed=6.13x    frame=28527 fps=147 q=32.0 size=   37840kB time=00:19:50.00 bitrate= 260.5kbits/s dup=5 drop=0 speed=6.13x    frame=28582 fps=147 q=32.0 size=   37930kB time=00:19:52.27 bitrate= 260.6kbits/s dup=5 drop=0 speed=6.13x    frame=28656 fps=147 q=32.0 size=   38028kB time=00:19:55.34 bitrate= 260.6kbits/s dup=5 drop=0 speed=6.13x    frame=28715 fps=147 q=32.0 size=   38121kB time=00:19:57.80 bitrate= 260.7kbits/s dup=5 drop=0 speed=6.12x    frame=28762 fps=147 q=32.0 size=   38203kB time=00:19:59.75 bitrate= 260.9kbits/s dup=5 drop=0 speed=6.12x    frame=28862 fps=147 q=32.0 size=   38300kB time=00:20:03.93 bitrate= 260.6kbits/s dup=5 drop=0 speed=6.12x    frame=28922 fps=147 q=32.0 size=   38380kB time=00:20:06.44 bitrate= 260.6kbits/s dup=5 drop=0 speed=6.12x    frame=28990 fps=147 q=32.0 size=   38451kB time=00:20:09.27 bitrate= 260.5kbits/s dup=5 drop=0 speed=6.12x    frame=29066 fps=147 q=32.0 size=   38543kB time=00:20:12.43 bitrate= 260.4kbits/s dup=5 drop=0 speed=6.12x    frame=29153 fps=147 q=32.0 size=   38625kB time=00:20:16.10 bitrate= 260.2kbits/s dup=5 drop=0 speed=6.12x    frame=29236 fps=147 q=32.0 size=   38730kB time=00:20:19.53 bitrate= 260.2kbits/s dup=5 drop=0 speed=6.12x    frame=29345 fps=147 q=32.0 size=   38811kB time=00:20:24.08 bitrate= 259.7kbits/s dup=5 drop=0 speed=6.13x    frame=29430 fps=147 q=32.0 size=   38910kB time=00:20:27.61 bitrate= 259.6kbits/s dup=5 drop=0 speed=6.13x    frame=29541 fps=147 q=32.0 size=   39025kB time=00:20:32.26 bitrate= 259.4kbits/s dup=5 drop=0 speed=6.14x    frame=29690 fps=148 q=32.0 size=   39128kB time=00:20:38.48 bitrate= 258.8kbits/s dup=5 drop=0 speed=6.15x    frame=29810 fps=148 q=32.0 size=   39211kB time=00:20:43.49 bitrate= 258.3kbits/s dup=5 drop=0 speed=6.16x    frame=29883 fps=148 q=32.0 size=   39282kB time=00:20:46.51 bitrate= 258.2kbits/s dup=5 drop=0 speed=6.16x    frame=29948 fps=148 q=32.0 size=   39375kB time=00:20:49.21 bitrate= 258.2kbits/s dup=5 drop=0 speed=6.16x    frame=30020 fps=148 q=32.0 size=   39451kB time=00:20:52.23 bitrate= 258.1kbits/s dup=5 drop=0 speed=6.16x    frame=30101 fps=148 q=32.0 size=   39533kB time=00:20:55.57 bitrate= 257.9kbits/s dup=5 drop=0 speed=6.16x    frame=30197 fps=148 q=32.0 size=   39621kB time=00:20:59.61 bitrate= 257.7kbits/s dup=5 drop=0 speed=6.17x    frame=30276 fps=148 q=32.0 size=   39702kB time=00:21:02.91 bitrate= 257.5kbits/s dup=5 drop=0 speed=6.17x    frame=30343 fps=148 q=32.0 size=   39784kB time=00:21:05.69 bitrate= 257.5kbits/s dup=5 drop=0 speed=6.17x    frame=30410 fps=148 q=32.0 size=   39848kB time=00:21:08.48 bitrate= 257.3kbits/s dup=5 drop=0 speed=6.17x    frame=30454 fps=148 q=32.0 size=   39959kB time=00:21:10.34 bitrate= 257.7kbits/s dup=5 drop=0 speed=6.16x    frame=30511 fps=148 q=32.0 size=   40082kB time=00:21:12.71 bitrate= 258.0kbits/s dup=5 drop=0 speed=6.16x    frame=30571 fps=147 q=32.0 size=   40201kB time=00:21:15.21 bitrate= 258.3kbits/s dup=5 drop=0 speed=6.15x    frame=30622 fps=147 q=32.0 size=   40287kB time=00:21:17.35 bitrate= 258.4kbits/s dup=5 drop=0 speed=6.15x    frame=30673 fps=147 q=32.0 size=   40369kB time=00:21:19.49 bitrate= 258.5kbits/s dup=5 drop=0 speed=6.14x    frame=30727 fps=147 q=32.0 size=   40457kB time=00:21:21.71 bitrate= 258.6kbits/s dup=5 drop=0 speed=6.14x    frame=30778 fps=147 q=32.0 size=   40540kB time=00:21:23.85 bitrate= 258.7kbits/s dup=5 drop=0 speed=6.13x    frame=30853 fps=147 q=32.0 size=   40678kB time=00:21:26.96 bitrate= 258.9kbits/s dup=5 drop=0 speed=6.13x    frame=30917 fps=147 q=32.0 size=   40747kB time=00:21:29.66 bitrate= 258.8kbits/s dup=5 drop=0 speed=6.13x    frame=30966 fps=147 q=32.0 size=   40924kB time=00:21:31.70 bitrate= 259.5kbits/s dup=5 drop=0 speed=6.12x    frame=31009 fps=147 q=32.0 size=   41062kB time=00:21:33.46 bitrate= 260.1kbits/s dup=5 drop=0 speed=6.12x    frame=31055 fps=147 q=32.0 size=   41183kB time=00:21:35.41 bitrate= 260.4kbits/s dup=5 drop=0 speed=6.11x    frame=31143 fps=147 q=32.0 size=   41309kB time=00:21:39.08 bitrate= 260.5kbits/s dup=5 drop=0 speed=6.12x    frame=31248 fps=147 q=32.0 size=   41411kB time=00:21:43.45 bitrate= 260.3kbits/s dup=5 drop=0 speed=6.12x    frame=31328 fps=147 q=32.0 size=   41503kB time=00:21:46.79 bitrate= 260.2kbits/s dup=5 drop=0 speed=6.12x    frame=31394 fps=147 q=32.0 size=   41585kB time=00:21:49.53 bitrate= 260.1kbits/s dup=5 drop=0 speed=6.12x    frame=31458 fps=147 q=32.0 size=   41666kB time=00:21:52.23 bitrate= 260.1kbits/s dup=5 drop=0 speed=6.12x    frame=31514 fps=147 q=32.0 size=   41736kB time=00:21:54.55 bitrate= 260.1kbits/s dup=5 drop=0 speed=6.11x    frame=31576 fps=147 q=32.0 size=   41827kB time=00:21:57.10 bitrate= 260.1kbits/s dup=5 drop=0 speed=6.11x    frame=31639 fps=146 q=32.0 size=   41943kB time=00:21:59.75 bitrate= 260.3kbits/s dup=5 drop=0 speed=6.11x    frame=31698 fps=146 q=32.0 size=   42049kB time=00:22:02.21 bitrate= 260.5kbits/s dup=5 drop=0 speed=6.11x    frame=31755 fps=146 q=32.0 size=   42158kB time=00:22:04.58 bitrate= 260.7kbits/s dup=5 drop=0 speed= 6.1x    frame=31818 fps=146 q=32.0 size=   42302kB time=00:22:07.23 bitrate= 261.1kbits/s dup=5 drop=0 speed= 6.1x    frame=31870 fps=146 q=32.0 size=   42411kB time=00:22:09.41 bitrate= 261.3kbits/s dup=5 drop=0 speed= 6.1x    frame=31910 fps=146 q=32.0 size=   42539kB time=00:22:11.08 bitrate= 261.8kbits/s dup=5 drop=0 speed=6.09x    frame=31959 fps=146 q=32.0 size=   42653kB time=00:22:13.12 bitrate= 262.1kbits/s dup=5 drop=0 speed=6.08x    frame=32032 fps=146 q=32.0 size=   42763kB time=00:22:16.14 bitrate= 262.2kbits/s dup=5 drop=0 speed=6.08x    frame=32075 fps=146 q=32.0 size=   42918kB time=00:22:17.95 bitrate= 262.8kbits/s dup=5 drop=0 speed=6.08x    frame=32139 fps=146 q=32.0 size=   43032kB time=00:22:20.65 bitrate= 262.9kbits/s dup=5 drop=0 speed=6.08x    frame=32206 fps=146 q=32.0 size=   43183kB time=00:22:23.39 bitrate= 263.3kbits/s dup=5 drop=0 speed=6.07x    frame=32286 fps=146 q=32.0 size=   43296kB time=00:22:26.73 bitrate= 263.4kbits/s dup=5 drop=0 speed=6.08x    frame=32363 fps=146 q=32.0 size=   43402kB time=00:22:29.93 bitrate= 263.4kbits/s dup=5 drop=0 speed=6.08x    frame=32429 fps=146 q=32.0 size=   43524kB time=00:22:32.67 bitrate= 263.6kbits/s dup=5 drop=0 speed=6.08x    frame=32526 fps=146 q=32.0 size=   43655kB time=00:22:36.76 bitrate= 263.6kbits/s dup=5 drop=0 speed=6.08x    frame=32590 fps=146 q=32.0 size=   43773kB time=00:22:39.41 bitrate= 263.8kbits/s dup=5 drop=0 speed=6.08x    frame=32641 fps=146 q=32.0 size=   43908kB time=00:22:41.54 bitrate= 264.2kbits/s dup=5 drop=0 speed=6.07x    frame=32694 fps=146 q=32.0 size=   44022kB time=00:22:43.77 bitrate= 264.4kbits/s dup=5 drop=0 speed=6.07x    frame=32742 fps=145 q=32.0 size=   44190kB time=00:22:45.77 bitrate= 265.1kbits/s dup=5 drop=0 speed=6.06x    frame=32798 fps=145 q=32.0 size=   44392kB time=00:22:48.09 bitrate= 265.8kbits/s dup=5 drop=0 speed=6.06x    frame=32862 fps=145 q=32.0 size=   44536kB time=00:22:50.79 bitrate= 266.2kbits/s dup=5 drop=0 speed=6.06x    frame=32914 fps=145 q=32.0 size=   44651kB time=00:22:52.92 bitrate= 266.4kbits/s dup=5 drop=0 speed=6.05x    frame=32973 fps=145 q=32.0 size=   44749kB time=00:22:55.38 bitrate= 266.5kbits/s dup=5 drop=0 speed=6.05x    frame=33043 fps=145 q=32.0 size=   44850kB time=00:22:58.31 bitrate= 266.6kbits/s dup=5 drop=0 speed=6.05x    frame=33100 fps=145 q=32.0 size=   44945kB time=00:23:00.68 bitrate= 266.7kbits/s dup=5 drop=0 speed=6.05x    frame=33150 fps=145 q=32.0 size=   45064kB time=00:23:02.77 bitrate= 267.0kbits/s dup=5 drop=0 speed=6.04x    frame=33204 fps=145 q=32.0 size=   45173kB time=00:23:05.00 bitrate= 267.2kbits/s dup=5 drop=0 speed=6.04x    frame=33247 fps=145 q=32.0 size=   45280kB time=00:23:06.81 bitrate= 267.5kbits/s dup=5 drop=0 speed=6.03x    frame=33307 fps=145 q=32.0 size=   45360kB time=00:23:09.32 bitrate= 267.5kbits/s dup=5 drop=0 speed=6.03x    frame=33385 fps=145 q=32.0 size=   45432kB time=00:23:12.57 bitrate= 267.3kbits/s dup=5 drop=0 speed=6.03x    frame=33494 fps=145 q=32.0 size=   45525kB time=00:23:17.12 bitrate= 266.9kbits/s dup=5 drop=0 speed=6.04x    frame=33567 fps=145 q=32.0 size=   45610kB time=00:23:20.14 bitrate= 266.9kbits/s dup=5 drop=0 speed=6.04x    frame=33661 fps=145 q=32.0 size=   45715kB time=00:23:24.08 bitrate= 266.7kbits/s dup=5 drop=0 speed=6.04x    frame=33746 fps=145 q=32.0 size=   45784kB time=00:23:27.61 bitrate= 266.4kbits/s dup=5 drop=0 speed=6.04x    frame=33796 fps=145 q=32.0 size=   45857kB time=00:23:29.70 bitrate= 266.5kbits/s dup=5 drop=0 speed=6.04x    frame=33843 fps=145 q=32.0 size=   45931kB time=00:23:31.70 bitrate= 266.5kbits/s dup=5 drop=0 speed=6.04x    frame=33890 fps=145 q=32.0 size=   46021kB time=00:23:33.65 bitrate= 266.7kbits/s dup=5 drop=0 speed=6.03x    frame=33949 fps=145 q=32.0 size=   46127kB time=00:23:36.11 bitrate= 266.8kbits/s dup=5 drop=0 speed=6.03x    frame=34038 fps=145 q=32.0 size=   46257kB time=00:23:39.78 bitrate= 266.9kbits/s dup=5 drop=0 speed=6.03x    frame=34150 fps=145 q=32.0 size=   46352kB time=00:23:44.47 bitrate= 266.6kbits/s dup=5 drop=0 speed=6.04x    frame=34244 fps=145 q=32.0 size=   46443kB time=00:23:48.42 bitrate= 266.4kbits/s dup=5 drop=0 speed=6.04x    frame=34308 fps=145 q=32.0 size=   46540kB time=00:23:51.07 bitrate= 266.4kbits/s dup=5 drop=0 speed=6.04x    frame=34375 fps=145 q=32.0 size=   46684kB time=00:23:53.85 bitrate= 266.7kbits/s dup=5 drop=0 speed=6.04x    frame=34427 fps=145 q=32.0 size=   46783kB time=00:23:56.03 bitrate= 266.9kbits/s dup=5 drop=0 speed=6.04x    frame=34483 fps=145 q=32.0 size=   46883kB time=00:23:58.36 bitrate= 267.0kbits/s dup=5 drop=0 speed=6.03x    frame=34547 fps=145 q=32.0 size=   46985kB time=00:24:01.05 bitrate= 267.1kbits/s dup=5 drop=0 speed=6.03x    frame=34628 fps=145 q=32.0 size=   47134kB time=00:24:04.39 bitrate= 267.3kbits/s dup=5 drop=0 speed=6.03x    frame=34692 fps=145 q=32.0 size=   47212kB time=00:24:07.09 bitrate= 267.3kbits/s dup=5 drop=0 speed=6.03x    frame=34781 fps=145 q=32.0 size=   47336kB time=00:24:10.80 bitrate= 267.3kbits/s dup=5 drop=0 speed=6.03x    frame=34832 fps=144 q=32.0 size=   47467kB time=00:24:12.94 bitrate= 267.6kbits/s dup=5 drop=0 speed=6.03x    frame=34903 fps=144 q=32.0 size=   47585kB time=00:24:15.86 bitrate= 267.8kbits/s dup=5 drop=0 speed=6.03x    frame=34990 fps=145 q=32.0 size=   47715kB time=00:24:19.49 bitrate= 267.8kbits/s dup=5 drop=0 speed=6.03x    frame=35067 fps=145 q=32.0 size=   47825kB time=00:24:22.74 bitrate= 267.8kbits/s dup=5 drop=0 speed=6.03x    frame=35152 fps=145 q=32.0 size=   47898kB time=00:24:26.27 bitrate= 267.6kbits/s dup=5 drop=0 speed=6.03x    frame=35266 fps=145 q=32.0 size=   48012kB time=00:24:31.05 bitrate= 267.4kbits/s dup=5 drop=0 speed=6.04x    frame=35390 fps=145 q=32.0 size=   48124kB time=00:24:36.21 bitrate= 267.1kbits/s dup=5 drop=0 speed=6.05x    frame=35506 fps=145 q=32.0 size=   48236kB time=00:24:41.08 bitrate= 266.8kbits/s dup=5 drop=0 speed=6.05x    [mp4 @ 0x357c6c0] Starting second pass: moving the moov atom to the beginning of the file
frame=35590 fps=145 q=-1.0 Lsize=   49218kB time=00:24:44.27 bitrate= 271.6kbits/s dup=5 drop=0 speed=6.05x    
video:39627kB audio:8715kB subtitle:0kB other streams:0kB global headers:0kB muxing overhead: 1.812031%
[libx264 @ 0x35ed660] frame I:307   Avg QP:21.06  size: 11670
[libx264 @ 0x35ed660] frame P:11308 Avg QP:24.09  size:  2348
[libx264 @ 0x35ed660] frame B:23975 Avg QP:28.20  size:   435
[libx264 @ 0x35ed660] consecutive B-frames:  5.5%  8.6% 16.6% 69.3%
[libx264 @ 0x35ed660] mb I  I16..4: 38.2% 50.2% 11.6%
[libx264 @ 0x35ed660] mb P  I16..4:  5.8%  7.1%  0.9%  P16..4: 29.7%  3.5%  2.5%  0.1%  0.0%    skip:50.4%
[libx264 @ 0x35ed660] mb B  I16..4:  0.4%  0.5%  0.1%  B16..8: 14.5%  1.1%  0.1%  direct: 0.8%  skip:82.5%  L0:45.3% L1:52.7% BI: 1.9%
[libx264 @ 0x35ed660] 8x8 transform intra:51.2% inter:70.2%
[libx264 @ 0x35ed660] coded y,uvDC,uvAC intra: 25.4% 40.0% 3.4% inter: 1.8% 3.5% 0.0%
[libx264 @ 0x35ed660] i16 v,h,dc,p: 50% 28% 13%  9%
[libx264 @ 0x35ed660] i8 v,h,dc,ddl,ddr,vr,hd,vl,hu: 23% 15% 44%  3%  3%  3%  3%  3%  3%
[libx264 @ 0x35ed660] i4 v,h,dc,ddl,ddr,vr,hd,vl,hu: 28% 20% 20%  5%  6%  6%  6%  5%  4%
[libx264 @ 0x35ed660] i8c dc,h,v,p: 50% 24% 22%  4%
[libx264 @ 0x35ed660] Weighted P-Frames: Y:2.8% UV:2.1%
[libx264 @ 0x35ed660] ref P L0: 60.7% 10.0% 13.8%  4.7%  3.2%  3.2%  2.4%  1.5%  0.5%  0.0%
[libx264 @ 0x35ed660] ref B L0: 72.6% 13.2%  7.0%  2.4%  1.9%  1.9%  1.0%
[libx264 @ 0x35ed660] ref B L1: 94.0%  6.0%
[libx264 @ 0x35ed660] kb/s:218.69
